<svg xmlns="http://www.w3.org/2000/svg" width="259.887" height="59.998" viewBox="0 0 259.887 59.998">
  <g id="Group_9867" data-name="Group 9867" transform="translate(-624.002 -427.999)">
    <path id="Path_12097" data-name="Path 12097" d="M42.774,38.135c-1.889,1.493-2.422,3-1.25,4.468,1.274,1.34,2.846,1.039,4.6-.621,4.1-4.1,8.03-8.411,12.125-12.527a6.414,6.414,0,0,0,9.916-1.135c1.614-2.363,4.266-7.761,1.916-10.473s-8.076-.856-10.64.4A6.409,6.409,0,0,0,56.9,27.9C52.242,31.377,47.41,34.643,42.774,38.135Zm32.4,2.563a29.982,29.982,0,0,0-1.459-5.053A3.82,3.82,0,0,0,66.589,38.4a21.7,21.7,0,0,1,1.088,3.767A22.357,22.357,0,1,1,45.682,24.084a22.864,22.864,0,0,1,2.879.188,3.813,3.813,0,0,0,.971-7.563,29.994,29.994,0,1,0-7.623,59.5,30.9,30.9,0,0,0,5.75.178A30.019,30.019,0,0,0,75.173,40.7Zm-12.16-3.079c-1.319-1.4-2.944-1.1-4.75.617-4.029,4.014-6.188,6.777-10.188,10.827l-1.069-1.225a3.684,3.684,0,0,0-5.188-.368l-9.6,8.317a1.328,1.328,0,0,0-.134,1.871l.023.014a1.3,1.3,0,0,0,1.853.134l8.4-7.272A1.211,1.211,0,0,1,44,50.7l.021.031a1.2,1.2,0,0,1-.067,1.639l-8.4,7.261A1.329,1.329,0,0,0,35.42,61.5l.027.034a1.337,1.337,0,0,0,1.859.134l8.4-7.291a1.213,1.213,0,0,1,1.625.167l.028.034a1.188,1.188,0,0,1-.067,1.637l-8.4,7.275a1.324,1.324,0,0,0-.134,1.859l.031.036a1.313,1.313,0,0,0,1.849.132l9.613-8.328A3.678,3.678,0,0,0,50.622,52l-1.071-1.223c4.583-3.391,7.616-5.131,12.166-8.546,1.954-1.553,2.5-3.107,1.3-4.613Z" transform="translate(608.28 411.548)" fill="#1877f1"/>
    <g id="Group_19586" data-name="Group 19586" transform="translate(695.78 446.812)">
      <g id="Group_19585" data-name="Group 19585">
        <path id="Path_12087" data-name="Path 12087" d="M854.54,134.8a5.9,5.9,0,0,0-1.512-4.2,10.583,10.583,0,0,0-4.259-2.541l-1.308-.438a7.938,7.938,0,0,1-2.5-1.219,1.712,1.712,0,0,1-.669-1.364A1.542,1.542,0,0,1,845,123.72a3.206,3.206,0,0,1,1.933-.537,2.859,2.859,0,0,1,1.861.6,3.313,3.313,0,0,1,1.032,1.481l.1.3,4-1.684-.088-.261A6.854,6.854,0,0,0,846.887,119a8.188,8.188,0,0,0-3.62.8,6.062,6.062,0,0,0-2.5,2.221,5.681,5.681,0,0,0-.887,3.121,5.263,5.263,0,0,0,1.512,3.833,9.086,9.086,0,0,0,3.533,2.207l1.279.464a11.625,11.625,0,0,1,3.082,1.539,2.09,2.09,0,0,1,.785,1.669v.029a1.788,1.788,0,0,1-.8,1.568,3.5,3.5,0,0,1-2.079.61,3.351,3.351,0,0,1-2.413-.914,5.235,5.235,0,0,1-1.4-2.512l-.088-.319-4.3,1.668.073.261a8.456,8.456,0,0,0,3.038,4.515,8.283,8.283,0,0,0,4.87,1.6h.131a8.857,8.857,0,0,0,3.5-.726,6.646,6.646,0,0,0,2.806-2.207,5.882,5.882,0,0,0,1.12-3.615Z" transform="translate(-805.713 -118.953)" fill="#1877f1"/>
        <path id="Path_12088" data-name="Path 12088" d="M1309.63,177.3v1.716h4.158v-15.6H1309.4v7.865a4.427,4.427,0,0,1-.9,2.849,2.866,2.866,0,0,1-2.37,1.09,2.052,2.052,0,0,1-1.687-.756,3.324,3.324,0,0,1-.654-2.2V163.4H1299.4v9.333a7.306,7.306,0,0,0,1.468,4.826,5.293,5.293,0,0,0,4.288,1.759h.073a6.15,6.15,0,0,0,2.733-.654,4.748,4.748,0,0,0,1.669-1.366Z" transform="translate(-1199.189 -156.939)" fill="#1877f1"/>
        <path id="Path_12089" data-name="Path 12089" d="M1169.33,137.349l.174-.2-3.2-3.049-.2.247a6.563,6.563,0,0,1-5.277,2.625,6.772,6.772,0,0,1-3.4-.856,6.076,6.076,0,0,1-2.4-2.41,7.272,7.272,0,0,1-.875-3.615,7.165,7.165,0,0,1,.887-3.615,6.077,6.077,0,0,1,2.4-2.41,7,7,0,0,1,3.4-.856,6.055,6.055,0,0,1,4.783,2.25l.2.232L1169,122.6l-.187-.2a10.388,10.388,0,0,0-8.01-3.5h-.116a11.12,11.12,0,0,0-5.553,1.481,10.921,10.921,0,0,0-4.056,4.036,11.21,11.21,0,0,0-1.482,5.662,11.025,11.025,0,0,0,1.482,5.662,10.884,10.884,0,0,0,4.041,4.036,11.25,11.25,0,0,0,5.67,1.481h.131a11.4,11.4,0,0,0,4.652-1,10.513,10.513,0,0,0,3.766-2.9Z" transform="translate(-1071.157 -118.875)" fill="#1877f1"/>
        <path id="Path_12090" data-name="Path 12090" d="M1544.79,134.241a6.563,6.563,0,0,1-5.277,2.625,6.771,6.771,0,0,1-3.4-.856,6.077,6.077,0,0,1-2.4-2.41,7.271,7.271,0,0,1-.875-3.615,7.163,7.163,0,0,1,.887-3.615,6.172,6.172,0,0,1,2.4-2.41,7,7,0,0,1,3.4-.856,6.054,6.054,0,0,1,4.783,2.25l.2.233,3.184-3.093-.187-.2a10.388,10.388,0,0,0-8.01-3.5,11.249,11.249,0,0,0-5.67,1.481,10.923,10.923,0,0,0-4.056,4.036,11.209,11.209,0,0,0-1.483,5.662,11.026,11.026,0,0,0,1.483,5.662,10.818,10.818,0,0,0,4.056,4.036,11.12,11.12,0,0,0,5.553,1.481h.25a11.4,11.4,0,0,0,4.652-1,10.538,10.538,0,0,0,3.75-2.918l.175-.2-3.213-3.049Z" transform="translate(-1394.809 -118.788)" fill="#1877f1"/>
        <path id="Path_12091" data-name="Path 12091" d="M1688.1,171.379a4.426,4.426,0,0,1-.9,2.849,2.866,2.866,0,0,1-2.369,1.09,2.052,2.052,0,0,1-1.687-.756,3.323,3.323,0,0,1-.655-2.2V163.5H1678.1v9.333a7.306,7.306,0,0,0,1.468,4.826,5.293,5.293,0,0,0,4.288,1.759h.058a6.152,6.152,0,0,0,2.733-.654,5.005,5.005,0,0,0,1.688-1.381v1.57h4.157V163.5H1688.1Z" transform="translate(-1522.842 -157.025)" fill="#1877f1"/>
        <path id="Path_12092" data-name="Path 12092" d="M614.448,133.059l-.16-2.308,4.986,12.875h3.46l4.957-12.862-.16,2.279v10.583h4.478V122.2h-5.568l-5.451,14.416L615.553,122.2H610v21.427h4.448Z" transform="translate(-610 -121.699)" fill="#1877f1"/>
        <path id="Path_12093" data-name="Path 12093" d="M964.123,122.2H959.21l-8.01,21.427h4.957l1.745-4.979h7.56l1.744,4.979h4.957Zm-2.443,5.43.6,1.974,1.7,4.849h-4.625l1.73-4.863Z" transform="translate(-901.604 -121.699)" fill="#1877f1"/>
        <rect id="Rectangle_2852" data-name="Rectangle 2852" width="4.506" height="21.427" transform="translate(26.181 0.501)" fill="#1877f1"/>
        <path id="Path_12094" data-name="Path 12094" d="M1435.39,128.2h-5.8l-5.1,5.154V122.2h-4.39v21.427h4.39v-4.776l1.57-1.539,3.938,6.313h5.393l-6.234-9.362Z" transform="translate(-1302.344 -121.699)" fill="#1877f1"/>
        <path id="Path_12095" data-name="Path 12095" d="M1814.19,128h-5.8l-5.1,5.154V122h-4.39v21.427h4.39v-4.776l1.57-1.539,3.938,6.313h5.393l-6.237-9.363Z" transform="translate(-1626.082 -121.527)" fill="#1877f1"/>
      </g>
    </g>
  </g>
</svg>
